<?xml version="1.0" encoding="utf-8"?>
<!-- Generator: Adobe Illustrator 17.0.0, SVG Export Plug-In . SVG Version: 6.00 Build 0)  -->
<!DOCTYPE svg PUBLIC "-//W3C//DTD SVG 1.1//EN" "http://www.w3.org/Graphics/SVG/1.1/DTD/svg11.dtd">
<svg version="1.1" id="Cowse" xmlns="http://www.w3.org/2000/svg" xmlns:xlink="http://www.w3.org/1999/xlink" x="0px" y="0px"
	 width="115px" height="100px" viewBox="0 0 115 100" enable-background="new 0 0 115 100" xml:space="preserve">
<path fill="#FFFFFF" d="M70.252,34.22l-1.84,3.082h1.84V34.22z M72.007,16.797c-0.26-0.302-0.633-0.454-1.12-0.454
	c-0.476,0-0.868,0.158-1.176,0.473s-0.477,0.669-0.505,1.063l3.255-0.005C72.418,17.459,72.267,17.1,72.007,16.797z M51.624,53.016
	c-1.353,1.378-2.628,2.011-3.789,1.883c-1.547-0.17-2.514-1.666-2.536-1.704c-0.304-0.486-0.936-0.633-1.419-0.329
	c-0.48,0.31-0.628,0.956-0.326,1.45c0.059,0.094,1.483,2.373,4.034,2.669c0.183,0.022,0.368,0.032,0.552,0.032
	c1.642,0,3.301-0.843,4.941-2.517c0.404-0.411,0.404-1.075,0-1.484C52.679,52.605,52.027,52.605,51.624,53.016z M50.875,20.984
	c0.505,0,0.886-0.196,1.144-0.588c0.258-0.392,0.387-0.969,0.387-1.732c0-0.766-0.129-1.345-0.387-1.735s-0.639-0.585-1.144-0.585
	c-0.501,0-0.881,0.195-1.139,0.585s-0.387,0.969-0.387,1.735c0,0.763,0.129,1.34,0.387,1.732
	C49.994,20.789,50.373,20.984,50.875,20.984z M69.604,53.016c-1.352,1.378-2.63,2.011-3.789,1.883
	c-1.546-0.17-2.515-1.668-2.536-1.704c-0.305-0.486-0.936-0.633-1.418-0.329c-0.482,0.31-0.629,0.956-0.328,1.448
	c0.058,0.096,1.482,2.375,4.034,2.671c0.184,0.022,0.367,0.032,0.553,0.032c1.639,0,3.301-0.843,4.941-2.517
	c0.404-0.411,0.404-1.075,0-1.484C70.659,52.605,70.006,52.605,69.604,53.016z M113.575,42.142L59.653,0.735
	c-1.276-0.979-3.033-0.979-4.306,0L20.813,27.254c-0.811-0.693-1.567-1.471-2.224-2.375c-3.639-5.007-3.978-12.569-1.01-22.476
	c0.144-0.483-0.071-1.004-0.511-1.237c-0.442-0.234-0.982-0.115-1.288,0.284C15.317,2.052,4.497,16.381,9.271,29.74
	c0.577,1.615,1.384,3.128,2.366,4.561L1.425,42.143c-1.578,1.212-1.893,3.497-0.704,5.106c0.703,0.951,1.775,1.452,2.86,1.452
	c0.75,0,1.506-0.239,2.151-0.734l10.904-8.373c3.027,2.381,6.845,4.397,11.449,6.035c-0.448,0.009-0.899,0.029-1.35,0.07
	c-5.063,0.448-8.954,2.788-9.117,2.885c-0.463,0.283-0.635,0.883-0.391,1.374c0.12,0.245,3.031,5.978,9.427,5.978
	c0.312,0,0.631-0.015,0.949-0.043c2.504-0.221,4.835-0.883,6.566-1.868c0.677-0.386,1.232-0.809,1.676-1.262
	c0.097,1.133,0.29,2.404,0.635,3.806c1.584,6.461,3.083,11.913,5.543,18.756c-0.668,0.369-1.521,1.011-2.171,2.089
	c-1.054,1.746-1.254,4.039-0.6,6.812c0.016,0.071,0.039,0.14,0.057,0.211c0.154,0.773,0.368,1.619,0.666,2.498
	c-2.687,0.796-5.039,1.988-6.625,3.754c-0.384,0.429-0.355,1.094,0.066,1.484c0.197,0.183,0.446,0.276,0.694,0.276
	c0.279,0,0.557-0.117,0.761-0.342c1.362-1.523,3.453-2.549,5.879-3.238c0.22,0.471,0.467,0.942,0.744,1.416
	c-4.92,1.53-9.279,3.65-11.258,6.57c-0.324,0.479-0.206,1.131,0.262,1.46c0.179,0.125,0.383,0.186,0.585,0.186
	c0.327,0,0.649-0.157,0.851-0.454c1.786-2.635,6.002-4.569,10.785-5.971c0.126,0.158,0.257,0.319,0.39,0.475
	c-2.843,1.565-5.216,3.507-6.456,5.909c-0.265,0.514-0.072,1.148,0.432,1.417c0.151,0.084,0.316,0.123,0.477,0.123
	c0.37,0,0.728-0.203,0.913-0.559c1.118-2.165,3.393-3.927,6.142-5.35c3.124,2.769,7.368,4.25,12.645,4.402
	c0.259,0.008,0.514,0.01,0.769,0.01c5.185,0,9.361-1.55,12.414-4.618c0.169-0.171,0.334-0.342,0.491-0.517
	c3.822,1.298,7.208,3.143,8.806,5.757c0.193,0.319,0.533,0.496,0.874,0.496c0.188,0,0.375-0.053,0.543-0.158
	c0.486-0.308,0.632-0.955,0.33-1.448c-1.768-2.894-5.264-4.932-9.2-6.374c0.034-0.051,0.069-0.103,0.104-0.155
	c4.86,0.94,9.345,2.521,11.441,5.181c0.204,0.257,0.502,0.392,0.803,0.392c0.227,0,0.453-0.076,0.645-0.231
	c0.443-0.362,0.515-1.025,0.156-1.476c-2.317-2.939-6.943-4.705-11.949-5.763c0.205-0.415,0.392-0.832,0.559-1.242
	c3.558,0.365,6.785,1.29,8.763,3.2c0.199,0.193,0.454,0.289,0.708,0.289c0.272,0,0.545-0.11,0.746-0.328
	c0.392-0.421,0.373-1.085-0.038-1.484c-2.235-2.153-5.695-3.234-9.472-3.693c0.163-0.549,0.295-1.08,0.404-1.585
	c0.054-0.155,0.109-0.308,0.155-0.463c0.436-1.5,0.509-2.786,0.359-3.884v-0.002c-0.297-2.15-1.474-3.553-2.582-4.307
	c2.805-7.313,4.287-13.134,5.629-19.554c0.25-1.198,0.388-2.327,0.449-3.362c0.37,0.309,0.799,0.607,1.292,0.881
	c1.732,0.977,4.067,1.629,6.574,1.838c0.321,0.028,0.645,0.041,0.961,0.041c6.648,0,9.296-5.814,9.405-6.06
	c0.215-0.486,0.037-1.062-0.416-1.335c-0.163-0.099-4.066-2.42-9.13-2.843c-0.324-0.027-0.651-0.044-0.972-0.056
	c4.617-1.641,8.445-3.661,11.48-6.048l10.905,8.374c1.578,1.214,3.822,0.891,5.01-0.717
	C115.468,45.64,115.153,43.354,113.575,42.142z M68.867,16.365c0.516-0.573,1.203-0.859,2.062-0.859c0.767,0,1.371,0.26,1.813,0.779
	s0.678,1.146,0.706,1.88v0.483h-4.281v0.032c-0.028,0.82,0.129,1.409,0.471,1.767s0.824,0.537,1.447,0.537
	c0.315,0,0.645-0.05,0.988-0.15s0.711-0.252,1.102-0.457v0.983c-0.377,0.154-0.739,0.27-1.088,0.346
	c-0.35,0.077-0.687,0.116-1.013,0.116c-0.935,0-1.665-0.28-2.191-0.84c-0.526-0.561-0.79-1.333-0.79-2.318
	C68.094,17.705,68.352,16.938,68.867,16.365z M67.779,37.196l2.344-3.695h0.914v3.801h0.777v0.641h-0.777v1.391h-0.785v-1.391
	h-2.473V37.196z M64.017,34.974v-0.758l1.461-0.695h0.789v5.152h1.211v0.66h-3.219v-0.66h1.227v-4.406L64.017,34.974z
	 M61.955,20.426c0.368,0.19,0.721,0.332,1.058,0.427c0.337,0.095,0.655,0.142,0.956,0.142c0.437,0,0.775-0.088,1.016-0.266
	c0.239-0.177,0.359-0.425,0.359-0.744c0-0.458-0.438-0.775-1.316-0.951l-0.043-0.011l-0.37-0.075
	c-0.569-0.111-0.984-0.298-1.246-0.562c-0.262-0.263-0.392-0.622-0.392-1.077c0-0.577,0.194-1.021,0.585-1.334
	c0.391-0.313,0.947-0.47,1.671-0.47c0.322,0,0.632,0.03,0.929,0.088c0.297,0.06,0.589,0.148,0.876,0.266v0.967
	c-0.283-0.165-0.568-0.288-0.854-0.371s-0.578-0.124-0.876-0.124c-0.447,0-0.781,0.073-1.001,0.217
	c-0.221,0.146-0.331,0.366-0.331,0.664c0,0.269,0.083,0.469,0.248,0.602c0.164,0.132,0.574,0.261,1.229,0.387l0.397,0.075
	c0.49,0.093,0.862,0.279,1.114,0.559c0.253,0.279,0.379,0.643,0.379,1.09c0,0.594-0.211,1.059-0.634,1.394
	c-0.423,0.335-1.01,0.502-1.762,0.502c-0.297,0-0.608-0.031-0.935-0.094c-0.326-0.062-0.679-0.156-1.058-0.282V20.426z
	 M62.011,32.935l1.098,1.469h-0.602l-1.27-1.469H62.011z M55.166,15.651l1.047,4.861l0.859-3.104h0.843l0.87,3.104l1.047-4.861
	h0.979l-1.408,6.016h-0.944l-0.962-3.298l-0.956,3.298h-0.945l-1.407-6.016H55.166z M60.628,36.509v0.668h-4.816v-0.668H60.628z
	 M53.625,36.753c0.203,0.259,0.305,0.583,0.305,0.971c0,0.537-0.18,0.958-0.541,1.264s-0.86,0.459-1.498,0.459
	c-0.268,0-0.542-0.025-0.82-0.074s-0.552-0.121-0.82-0.215v-0.785c0.266,0.138,0.527,0.241,0.785,0.309s0.514,0.102,0.77,0.102
	c0.432,0,0.764-0.098,0.996-0.293s0.348-0.477,0.348-0.844c0-0.338-0.116-0.607-0.348-0.807s-0.545-0.299-0.941-0.299h-0.602v-0.648
	h0.602c0.362,0,0.645-0.08,0.848-0.238s0.305-0.38,0.305-0.664c0-0.299-0.094-0.529-0.283-0.689s-0.458-0.24-0.807-0.24
	c-0.232,0-0.471,0.026-0.719,0.078s-0.506,0.13-0.777,0.234v-0.727c0.315-0.083,0.596-0.146,0.842-0.188s0.464-0.062,0.654-0.062
	c0.568,0,1.021,0.143,1.361,0.428s0.51,0.664,0.51,1.135c0,0.32-0.089,0.587-0.268,0.801s-0.438,0.365-0.779,0.453
	C53.129,36.313,53.422,36.494,53.625,36.753z M48.962,16.317c0.44-0.541,1.078-0.811,1.912-0.811s1.473,0.271,1.915,0.811
	c0.442,0.541,0.663,1.323,0.663,2.347c0,1.028-0.22,1.811-0.661,2.35c-0.44,0.539-1.08,0.808-1.917,0.808
	c-0.834,0-1.472-0.27-1.912-0.808c-0.44-0.539-0.661-1.322-0.661-2.35C48.302,17.64,48.522,16.857,48.962,16.317z M47.642,33.521
	v5.152h1.211v0.66h-3.219v-0.66h1.227v-4.406l-1.469,0.707v-0.758l1.461-0.695H47.642z M42.777,16.344
	c0.525-0.559,1.252-0.838,2.184-0.838c0.29,0,0.573,0.038,0.849,0.113s0.553,0.191,0.833,0.349v1.037
	c-0.261-0.233-0.524-0.401-0.787-0.505c-0.264-0.104-0.562-0.156-0.895-0.156c-0.62,0-1.096,0.201-1.429,0.602s-0.5,0.974-0.5,1.719
	c0,0.741,0.167,1.313,0.502,1.716c0.334,0.402,0.81,0.604,1.426,0.604c0.344,0,0.652-0.053,0.924-0.159
	c0.272-0.105,0.524-0.269,0.757-0.491v1.026c-0.265,0.154-0.538,0.27-0.819,0.346c-0.281,0.077-0.569,0.116-0.862,0.116
	c-0.931,0-1.659-0.279-2.184-0.838c-0.524-0.559-0.787-1.332-0.787-2.32S42.253,16.902,42.777,16.344z M44.644,34.403h-0.602
	l-1.27-1.469h0.773L44.644,34.403z M33.163,52.19c-1.482,0.844-3.521,1.415-5.741,1.612c-0.259,0.022-0.517,0.034-0.771,0.034
	c-3.79,0-6.079-2.55-7.049-3.945c1.368-0.671,4.107-1.82,7.308-2.103c0.536-0.047,1.075-0.072,1.602-0.072
	c3.748,0,6.372,1.235,6.472,2.387C35.037,50.722,34.338,51.522,33.163,52.19z M57.319,96.393c-4.371-0.124-7.932-1.228-10.62-3.281
	c0.169-0.072,0.338-0.145,0.508-0.215c0,0-0.001-0.002-0.002-0.002c2.926,1.393,6.412,2.206,10.085,2.206
	c2.754,0,5.49-0.433,7.907-1.254c1.058-0.359,2.055-0.8,2.988-1.307c0.169,0.045,0.336,0.095,0.506,0.142
	C65.925,95.279,62.098,96.527,57.319,96.393z M87.689,47.787c3.229,0.269,5.991,1.421,7.35,2.084
	c-0.901,1.391-3.096,3.961-7.041,3.961c-0.261,0-0.524-0.01-0.793-0.032c-2.22-0.187-4.263-0.749-5.747-1.584
	c-1.181-0.664-1.881-1.458-1.832-2.076c0.094-1.169,2.746-2.418,6.542-2.418C86.667,47.722,87.179,47.744,87.689,47.787z
	 M77.416,46.106c-0.283,0.061-0.53,0.241-0.677,0.496c-0.146,0.254-0.18,0.56-0.096,0.844c0.012,0.036,1.096,3.699,0.061,8.652
	c-1.371,6.57-2.894,12.501-5.865,20.089c-0.211,0.539,0.055,1.152,0.582,1.367c0.243,0.101,1.829,0.839,2.194,2.973
	c-0.008,0.384-0.056,1.841-0.465,3.728c-1.215,3.317-4.452,6.195-8.603,7.602c-2.21,0.75-4.723,1.146-7.259,1.146
	c-8.815,0-14.723-4.583-15.955-8.995c-0.363-1.819-0.362-3.187-0.357-3.483c0.298-2.882,2.304-3.524,2.587-3.598
	c0.287-0.068,0.533-0.261,0.671-0.526c0.14-0.268,0.16-0.58,0.057-0.864c-2.644-7.231-4.136-12.617-5.817-19.474
	c-1.308-5.327-0.24-8.567-0.232-8.594c0.101-0.285,0.077-0.601-0.07-0.866c-0.145-0.264-0.395-0.452-0.685-0.516
	c-8.217-1.774-14.61-4.387-19.146-7.806l7.581-5.822c3.921,1.368,7.955,1.68,10.754,1.68c1.5,0,2.721-0.082,3.514-0.155
	c-0.15,1.404-0.131,4.243,1.874,6.874c2.702,3.551,7.923,5.35,15.52,5.35c7.721,0,12.95-1.835,15.547-5.455
	c1.998-2.785,1.837-5.818,1.586-7.308c0.491,0.019,1.075,0.032,1.75,0.032c3.177,0,7.602-0.303,11.903-1.558l8.281,6.359
	C92.1,41.71,85.677,44.331,77.416,46.106z M65.835,78.543c-2.376,0-4.309,1.968-4.309,4.39c0,2.42,1.933,4.389,4.309,4.389
	c2.375,0,4.305-1.968,4.305-4.389C70.139,80.511,68.208,78.543,65.835,78.543z M65.835,85.221c-1.238,0-2.248-1.026-2.248-2.288
	c0-1.263,1.01-2.29,2.248-2.29c1.238,0,2.245,1.027,2.245,2.29C68.079,84.195,67.073,85.221,65.835,85.221z M48.982,78.543
	c-2.375,0-4.307,1.968-4.307,4.39c0,2.42,1.932,4.389,4.307,4.389c2.376,0,4.308-1.968,4.307-4.389
	C53.289,80.511,51.358,78.543,48.982,78.543z M48.982,85.221c-1.239,0-2.246-1.026-2.246-2.288c0-1.263,1.007-2.29,2.246-2.29
	c1.238,0,2.247,1.027,2.247,2.29C51.229,84.195,50.22,85.221,48.982,85.221z"/>
</svg>
